HIERARCHY
ROOT hip
{
  OFFSET 0 0 0
  CHANNELS 6 Xposition Yposition Zposition Zrotation Yrotation Xrotation
  JOINT abdomen
  {
    OFFSET 0 20.6881 -0.73152
    CHANNELS 3 Zrotation Xrotation Yrotation
    JOINT chest
    {
      OFFSET 0 11.7043 -0.48768
      CHANNELS 3 Zrotation Xrotation Yrotation
      JOINT neck
      {
        OFFSET 0 22.1894 -2.19456
        CHANNELS 3 Zrotation Xrotation Yrotation
        JOINT head
        {
          OFFSET -0.24384 7.07133 1.2192
          CHANNELS 3 Zrotation Xrotation Yrotation
          JOINT leftEye
          {
            OFFSET 4.14528 8.04674 8.04672
            CHANNELS 3 Zrotation Xrotation Yrotation
            End Site
            {
              OFFSET 1 0 0
            }
          }
          JOINT rightEye
          {
            OFFSET -3.6576 8.04674 8.04672
            CHANNELS 3 Zrotation Xrotation Yrotation
            End Site
            {
              OFFSET 1 0 0
            }
          }
        }
      }
      JOINT rCollar
      {
        OFFSET -2.68224 19.2634 -4.8768
        CHANNELS 3 Zrotation Xrotation Yrotation
        JOINT rShldr
        {
          OFFSET -8.77824 -1.95073 1.46304
          CHANNELS 3 Zrotation Xrotation Yrotation
          JOINT rForeArm
          {
            OFFSET -28.1742 -1.7115 0.48768
            CHANNELS 3 Zrotation Xrotation Yrotation
            JOINT rHand
            {
              OFFSET -22.5879 0.773209 7.07136
              CHANNELS 3 Zrotation Xrotation Yrotation
              JOINT rThumb1
              {
                OFFSET -1.2192 -0.487915 3.41376
                CHANNELS 3 Zrotation Xrotation Yrotation
                JOINT rThumb2
                {
                  OFFSET -3.37035 -0.52449 3.41376
                  CHANNELS 3 Zrotation Xrotation Yrotation
                  End Site
                  {
                    OFFSET -1.78271 -1.18214 1.43049
                  }
                }
              }
              JOINT rIndex1
              {
                OFFSET -7.75947 0.938293 5.60832
                CHANNELS 3 Zrotation Xrotation Yrotation
                JOINT rIndex2
                {
                  OFFSET -2.54057 -0.884171 1.56538
                  CHANNELS 3 Zrotation Xrotation Yrotation
                  End Site
                  {
                    OFFSET -1.62519 -0.234802 1.16502
                  }
                }
              }
              JOINT rMid1
              {
                OFFSET -8.24714 1.18213 3.41376
                CHANNELS 3 Zrotation Xrotation Yrotation
                JOINT rMid2
                {
                  OFFSET -3.10165 -0.590103 1.0647
                  CHANNELS 3 Zrotation Xrotation Yrotation
                  End Site
                  {
                    OFFSET -2.48547 -0.328903 0.83742
                  }
                }
              }
              JOINT rRing1
              {
                OFFSET -8.82822 0.546677 1.51678
                CHANNELS 3 Zrotation Xrotation Yrotation
                JOINT rRing2
                {
                  OFFSET -2.60934 -0.819778 -0.0198488
                  CHANNELS 3 Zrotation Xrotation Yrotation
                  End Site
                  {
                    OFFSET -2.33842 -0.294052 0.168128
                  }
                }
              }
              JOINT rPinky1
              {
                OFFSET -8.27202 -0.0477905 -0.4584
                CHANNELS 3 Zrotation Xrotation Yrotation
                JOINT rPinky2
                {
                  OFFSET -1.82734 -0.647385 -0.700984
                  CHANNELS 3 Zrotation Xrotation Yrotation
                  End Site
                  {
                    OFFSET -1.69225 -0.51767 -0.607171
                  }
                }
              }
            }
          }
        }
      }
      JOINT lCollar
      {
        OFFSET 2.68224 19.2634 -4.8768
        CHANNELS 3 Zrotation Xrotation Yrotation
        JOINT lShldr
        {
          OFFSET 8.77824 -1.95073 1.46304
          CHANNELS 3 Zrotation Xrotation Yrotation
          JOINT lForeArm
          {
            OFFSET 28.1742 -1.7115 0.48768
            CHANNELS 3 Zrotation Xrotation Yrotation
            JOINT lHand
            {
              OFFSET 22.5879 0.773209 7.07136
              CHANNELS 3 Zrotation Xrotation Yrotation
              JOINT lThumb1
              {
                OFFSET 1.2192 -0.487915 3.41376
                CHANNELS 3 Zrotation Xrotation Yrotation
                JOINT lThumb2
                {
                  OFFSET 3.37035 -0.52449 3.41376
                  CHANNELS 3 Zrotation Xrotation Yrotation
                  End Site
                  {
                    OFFSET 1.78271 -1.18214 1.43049
                  }
                }
              }
              JOINT lIndex1
              {
                OFFSET 7.75947 0.938293 5.60832
                CHANNELS 3 Zrotation Xrotation Yrotation
                JOINT lIndex2
                {
                  OFFSET 2.54057 -0.884171 1.56538
                  CHANNELS 3 Zrotation Xrotation Yrotation
                  End Site
                  {
                    OFFSET 1.62519 -0.234802 1.16502
                  }
                }
              }
              JOINT lMid1
              {
                OFFSET 8.24714 1.18213 3.41376
                CHANNELS 3 Zrotation Xrotation Yrotation
                JOINT lMid2
                {
                  OFFSET 3.10165 -0.590103 1.0647
                  CHANNELS 3 Zrotation Xrotation Yrotation
                  End Site
                  {
                    OFFSET 2.48547 -0.328903 0.83742
                  }
                }
              }
              JOINT lRing1
              {
                OFFSET 8.82822 0.546677 1.51678
                CHANNELS 3 Zrotation Xrotation Yrotation
                JOINT lRing2
                {
                  OFFSET 2.60934 -0.819778 -0.0198488
                  CHANNELS 3 Zrotation Xrotation Yrotation
                  End Site
                  {
                    OFFSET 2.33842 -0.294052 0.168128
                  }
                }
              }
              JOINT lPinky1
              {
                OFFSET 8.27202 -0.0477905 -0.4584
                CHANNELS 3 Zrotation Xrotation Yrotation
                JOINT lPinky2
                {
                  OFFSET 1.82734 -0.647385 -0.700984
                  CHANNELS 3 Zrotation Xrotation Yrotation
                  End Site
                  {
                    OFFSET 1.69225 -0.51767 -0.607171
                  }
                }
              }
            }
          }
        }
      }
    }
  }
  JOINT rButtock
  {
    OFFSET -8.77824 4.35084 1.2192
    CHANNELS 3 Zrotation Xrotation Yrotation
    JOINT rThigh
    {
      OFFSET 0 -1.70687 -2.19456
      CHANNELS 3 Zrotation Xrotation Yrotation
      JOINT rShin
      {
        OFFSET 0 -36.8199 0.73152
        CHANNELS 3 Zrotation Xrotation Yrotation
        JOINT rFoot
        {
          OFFSET 0.73152 -45.1104 -5.12064
          CHANNELS 3 Zrotation Xrotation Yrotation
          End Site
          {
            OFFSET -1.1221 -3.69964 12.103
          }
        }
      }
    }
  }
  JOINT lButtock
  {
    OFFSET 8.77824 4.35084 1.2192
    CHANNELS 3 Zrotation Xrotation Yrotation
    JOINT lThigh
    {
      OFFSET 0 -1.70687 -2.19456
      CHANNELS 3 Zrotation Xrotation Yrotation
      JOINT lShin
      {
        OFFSET 0 -36.8199 0.73152
        CHANNELS 3 Zrotation Xrotation Yrotation
        JOINT lFoot
        {
          OFFSET -0.73152 -45.1104 -5.12064
          CHANNELS 3 Zrotation Xrotation Yrotation
          End Site
          {
            OFFSET 1.1221 -3.69964 12.103
          }
        }
      }
    }
  }
}
MOTION
Frames:	4
Frame Time:	0.03333
2.6090000234544277 67.39959716796875 -8.992999855428934 -6.884999871253967 57.11720108985901 -7.651999667286873 6.493799686431885 22.077699601650238 6.537610217928886 0.8764930162578821 -9.859469756484032 2.14155999943614 1.9403899647295475 11.326700448989868 6.900309920310974 -4.528779834508896 -20.376200079917908 12.696099579334259 0.0 0.0 0.0 0.0 0.0 0.0 0.0 0.0 0.0 84.52540218830109 56.74209952354431 -31.774799823760986 -26.446200013160706 -45.359898805618286 94.19550061225891 -6.262009888887405 -55.53880155086517 -11.840500384569168 9.400480394106125e-10 5.115907697472721e-12 -5.115907697472721e-10 1.6434853478131117e-09 2.5579538487363607e-11 -8.594724931754172e-10 9.400480394106125e-10 5.115907697472721e-12 -5.115907697472721e-10 7.7309102565050125 5.474880114197731 0.41731400415301323 9.400480394106125e-10 5.115907697472721e-12 -5.115907697472721e-10 2.905540131032467 0.9651830233633518 0.102901995414868 9.400480394106125e-10 5.115907697472721e-12 -5.115907697472721e-10 10.27859978377819 0.7318009994924068 0.025912300043273717 9.400480394106125e-10 5.115907697472721e-12 -5.115907697472721e-10 2.221670038998127 -0.733487019315362 -0.2089200052432716 0.0 0.0 0.0 0.9532620292156935 44.96009945869446 -77.48750030994415 27.146500647068024 -43.449900448322296 -90.5791962146759 0.21402900572866201 -12.966499775648117 1.8550400622189045 -2.7331736873748014e-09 2.451542968628928e-08 -3.5504399420460686e-09 -4.679776566263172e-09 4.2456917981326114e-08 -6.1595528677571565e-09 -2.7331736873748014e-09 2.451542968628928e-08 -3.5504399420460686e-09 -7.7309102565050125 5.474880114197731 -0.41731400415301323 -2.7331736873748014e-09 2.451542968628928e-08 -3.5504399420460686e-09 -2.905540131032467 0.9651830233633518 -0.102901995414868 -2.7331736873748014e-09 2.451542968628928e-08 -3.5504399420460686e-09 -10.27859978377819 0.7318009994924068 -0.025912300043273717 -2.7331736873748014e-09 2.451542968628928e-08 -3.5504399420460686e-09 -2.221670038998127 -0.733487019315362 0.2089200052432716 0.0 0.0 0.0 -20.553700625896454 -19.25700008869171 -3.5302001237869263 -1.183699993416667 62.777498960494995 1.9761999696493149 -6.311280056834221 -25.589199364185333 -9.767559841275215 0.0 0.0 0.0 39.767501056194305 -49.553698897361755 25.359299182891846 1.3149099703878164 61.759300231933594 -1.197910001501441 0.2333280025050044 -5.726500153541565 0.05209749913774431
3.29720002040267 67.44819641113281 -8.596999857574701 -8.510999903082848 59.074602127075195 -9.175999984145164 6.766699701547623 21.273699402809143 6.5564098209142685 0.9227929729968309 -9.498080313205719 2.150549925863743 2.1527099423110485 11.162399724125862 6.686950251460075 -4.253249913454056 -20.844700187444687 12.291599661111832 0.0 0.0 0.0 0.0 0.0 0.0 0.0 0.0 0.0 90.10870456695557 55.038601756095886 -37.612300515174866 -26.60990059375763 -44.98320132493973 93.42990159988403 -9.351179748773575 -62.33910262584686 -15.465099513530731 1.0385292625869624e-09 -4.092726157978177e-11 -3.376499080331996e-10 1.808473371056607e-09 -5.6274984672199935e-11 -5.627498467219993e-10 1.0385292625869624e-09 -4.092726157978177e-11 -3.376499080331996e-10 7.7309102565050125 5.474880114197731 0.41731400415301323 1.0385292625869624e-09 -4.092726157978177e-11 -3.376499080331996e-10 2.905540131032467 0.9651830233633518 0.102901995414868 1.0385292625869624e-09 -4.092726157978177e-11 -3.376499080331996e-10 10.27859978377819 0.7318009994924068 0.025912300043273717 1.0385292625869624e-09 -4.092726157978177e-11 -3.376499080331996e-10 2.221670038998127 -0.733487019315362 -0.2089200052432716 0.0 0.0 0.0 -6.247369721531868 47.62539982795715 -67.5944995880127 27.94520080089569 -41.03490114212036 -85.52630066871643 0.16113300458528101 -11.545399725437164 1.6441099718213081 -2.45307774093817e-09 2.342574134672759e-08 -2.9979219107190147e-09 -4.201439196549472e-09 4.0594727579446044e-08 -5.20799403602723e-09 -2.45307774093817e-09 2.342574134672759e-08 -2.9979219107190147e-09 -7.7309102565050125 5.474880114197731 -0.41731400415301323 -2.45307774093817e-09 2.342574134672759e-08 -2.9979219107190147e-09 -2.905540131032467 0.9651830233633518 -0.102901995414868 -2.45307774093817e-09 2.342574134672759e-08 -2.9979219107190147e-09 -10.27859978377819 0.7318009994924068 -0.025912300043273717 -2.45307774093817e-09 2.342574134672759e-08 -2.9979219107190147e-09 -2.221670038998127 -0.733487019315362 0.2089200052432716 0.0 0.0 0.0 -19.318500459194183 -16.32059946656227 -3.477349877357483 -1.0144100245088339 60.60459852218628 1.8916899338364601 -6.956559866666794 -26.996398866176605 -10.61070017516613 0.0 0.0 0.0 40.57499885559082 -50.07669746875763 26.11809879541397 1.3440799992531538 62.01409935951233 -1.1909500043839216 -0.08193309826310724 -5.666920244693756 -1.5317800641059875
3.9001000486314297 67.44660186767578 -8.438999850302935 -10.100999996066093 60.72610259056091 -10.68599984049797 7.1605197340250015 20.327200144529343 6.822299882769585 0.952732041478157 -8.947060033679008 2.234419919550419 2.31771994382143 11.139900013804436 6.3645802438259125 -3.752650134265423 -21.701600253582 11.707099378108978 0.0 0.0 0.0 0.0 0.0 0.0 0.0 0.0 0.0 95.56089520454407 53.07269811630249 -43.345699310302734 -26.7316997051239 -44.6953010559082 92.84240126609802 -17.428099662065506 -71.18789792060852 -24.231400787830353 -5.1159076974727213e-11 -5.115907697472721e-12 -1.432454155292362e-10 -7.673861546209082e-11 -5.115907697472721e-12 -2.5579538487363607e-10 -5.1159076974727213e-11 -5.115907697472721e-12 -1.432454155292362e-10 7.7309102565050125 5.474880114197731 0.41731400415301323 -5.1159076974727213e-11 -5.115907697472721e-12 -1.432454155292362e-10 2.905540131032467 0.9651830233633518 0.102901995414868 -5.1159076974727213e-11 -5.115907697472721e-12 -1.432454155292362e-10 10.27859978377819 0.7318009994924068 0.025912300043273717 -5.1159076974727213e-11 -5.115907697472721e-12 -1.432454155292362e-10 2.221670038998127 -0.733487019315362 -0.2089200052432716 0.0 0.0 0.0 -13.497599959373474 48.660598397254944 -59.362499713897705 28.401299715042114 -37.63110011816025 -79.66020226478577 0.08012679812964052 -8.25140967965126 1.1669899988919497 -6.10071992923622e-10 7.295284376596101e-09 -1.2892087397631258e-09 -1.0436451702844352e-09 1.2646523828152567e-08 -2.2305357560981065e-09 -6.10071992923622e-10 7.295284376596101e-09 -1.2892087397631258e-09 -7.7309102565050125 5.474880114197731 -0.41731400415301323 -6.10071992923622e-10 7.295284376596101e-09 -1.2892087397631258e-09 -2.905540131032467 0.9651830233633518 -0.102901995414868 -6.10071992923622e-10 7.295284376596101e-09 -1.2892087397631258e-09 -10.27859978377819 0.7318009994924068 -0.025912300043273717 -6.10071992923622e-10 7.295284376596101e-09 -1.2892087397631258e-09 -2.221670038998127 -0.733487019315362 0.2089200052432716 0.0 0.0 0.0 -18.024900555610657 -13.541100025177002 -3.850950077176094 -0.8519939705729485 58.22160065174103 1.8318300694227219 -8.032609820365906 -27.892200350761414 -12.267100363969803 0.0 0.0 0.0 41.30079925060272 -50.85799813270569 26.61490023136139 1.3997100200504065 62.64960050582886 -1.2317800149321556 -0.29196501011028886 -6.066150292754173 -2.554899975657463
4.677500065416098 67.30049896240234 -7.865999836474657 -11.852999478578568 61.94000065326691 -11.94299966096878 7.731639817357063 19.626699686050415 7.002650275826454 1.033929968252778 -8.546439930796623 2.3116100393235683 2.2700899466872215 11.28609985113144 6.123790293931961 -3.1533199176192284 -22.171700298786163 11.33849948644638 0.0 0.0 0.0 0.0 0.0 0.0 0.0 0.0 0.0 98.45990180969238 50.227898955345154 -46.93379759788513 -26.8710994720459 -44.35519963502884 92.148996591568 -20.641899704933167 -73.10220122337341 -27.58949965238571 -1.0538769856793806e-09 3.581135388230905e-11 1.6370904631912708e-10 -1.8174262095271843e-09 6.139089236967266e-11 2.2509993868879974e-10 -1.0538769856793806e-09 3.581135388230905e-11 1.6370904631912708e-10 7.7309102565050125 5.474880114197731 0.41731400415301323 -1.0538769856793806e-09 3.581135388230905e-11 1.6370904631912708e-10 2.905540131032467 0.9651830233633518 0.102901995414868 -1.0538769856793806e-09 3.581135388230905e-11 1.6370904631912708e-10 10.27859978377819 0.7318009994924068 0.025912300043273717 -1.0538769856793806e-09 3.581135388230905e-11 1.6370904631912708e-10 2.221670038998127 -0.733487019315362 -0.2089200052432716 0.0 0.0 0.0 -18.63819971680641 48.3092987537384 -53.63599956035614 28.41150015592575 -34.355500638484955 -74.1564005613327 0.036707599356304854 -5.4268501326441765 0.7652659993618727 -1.0871303857129533e-10 -1.0743406164692715e-09 -1.0231815394945443e-10 -1.892885848064907e-10 -1.8621904018800706e-09 -1.8417267710901797e-10 -1.0871303857129533e-10 -1.0743406164692715e-09 -1.0231815394945443e-10 -7.7309102565050125 5.474880114197731 -0.41731400415301323 -1.0871303857129533e-10 -1.0743406164692715e-09 -1.0231815394945443e-10 -2.905540131032467 0.9651830233633518 -0.102901995414868 -1.0871303857129533e-10 -1.0743406164692715e-09 -1.0231815394945443e-10 -10.27859978377819 0.7318009994924068 -0.025912300043273717 -1.0871303857129533e-10 -1.0743406164692715e-09 -1.0231815394945443e-10 -2.221670038998127 -0.733487019315362 0.2089200052432716 0.0 0.0 0.0 -16.610799729824066 -10.733100101351738 -3.901290111243725 -0.7249239832162857 56.080302000045776 1.7950199358165264 -8.919030278921127 -28.317499458789825 -13.685999661684036 0.0 0.0 0.0 41.853801012039185 -51.460599303245544 26.706599593162537 1.4571900106966496 63.2949024438858 -1.280920011922717 -0.4540000017732382 -5.865690037608147 -3.458930142223835
